<svg xmlns="http://www.w3.org/2000/svg" xmlns:xlink="http://www.w3.org/1999/xlink" width="1024" zoomAndPan="magnify" viewBox="0 0 768 767.999994" height="1024" preserveAspectRatio="xMidYMid meet" version="1.0"><defs><clipPath id="e10c7e3b5b"><path d="M 31.796875 76.800781 L 736.046875 76.800781 L 736.046875 291 L 31.796875 291 Z M 31.796875 76.800781 " clip-rule="nonzero"/></clipPath><clipPath id="08a1446298"><path d="M 316.070312 26.601562 L 344.570312 26.601562 L 344.570312 55 L 316.070312 55 Z M 316.070312 26.601562 " clip-rule="nonzero"/></clipPath><clipPath id="38d154ccfe"><path d="M 369.859375 26.601562 L 398.359375 26.601562 L 398.359375 55 L 369.859375 55 Z M 369.859375 26.601562 " clip-rule="nonzero"/></clipPath><clipPath id="3758dd44a3"><path d="M 423.644531 26.601562 L 452 26.601562 L 452 55 L 423.644531 55 Z M 423.644531 26.601562 " clip-rule="nonzero"/></clipPath></defs><path fill="#a6a6a6" d="M 279.964844 563.601562 L 384.097656 767.839844 L 488.234375 563.601562 Z M 279.964844 563.601562 " fill-opacity="1" fill-rule="nonzero"/><path fill="#545454" d="M 155.875 320.226562 L 264.84375 533.9375 L 503.355469 533.9375 L 612.324219 320.226562 Z M 155.875 320.226562 " fill-opacity="1" fill-rule="nonzero"/><g clip-path="url(#e10c7e3b5b)"><path fill="#000000" d="M 31.789062 76.847656 L 140.753906 290.5625 L 627.449219 290.5625 L 736.414062 76.847656 Z M 31.789062 76.847656 " fill-opacity="1" fill-rule="nonzero"/></g><g clip-path="url(#08a1446298)"><path fill="#000000" d="M 316.160156 26.6875 L 344.261719 26.6875 L 344.261719 54.789062 L 316.160156 54.789062 Z M 316.160156 26.6875 " fill-opacity="1" fill-rule="nonzero"/><path fill="#000000" d="M 316.070312 26.601562 L 316.070312 54.878906 L 344.347656 54.878906 L 344.347656 26.601562 Z M 344.171875 54.699219 L 316.25 54.699219 L 316.25 26.777344 L 344.171875 26.777344 Z M 344.171875 54.699219 " fill-opacity="1" fill-rule="nonzero"/></g><g clip-path="url(#38d154ccfe)"><path fill="#000000" d="M 369.949219 26.6875 L 398.046875 26.6875 L 398.046875 54.789062 L 369.949219 54.789062 Z M 369.949219 26.6875 " fill-opacity="1" fill-rule="nonzero"/><path fill="#000000" d="M 369.859375 26.601562 L 369.859375 54.878906 L 398.136719 54.878906 L 398.136719 26.601562 Z M 397.957031 54.699219 L 370.035156 54.699219 L 370.035156 26.777344 L 397.957031 26.777344 Z M 397.957031 54.699219 " fill-opacity="1" fill-rule="nonzero"/></g><g clip-path="url(#3758dd44a3)"><path fill="#000000" d="M 423.734375 26.6875 L 451.832031 26.6875 L 451.832031 54.789062 L 423.734375 54.789062 Z M 423.734375 26.6875 " fill-opacity="1" fill-rule="nonzero"/><path fill="#000000" d="M 423.644531 26.601562 L 423.644531 54.878906 L 451.921875 54.878906 L 451.921875 26.601562 Z M 451.746094 54.699219 L 423.824219 54.699219 L 423.824219 26.777344 L 451.746094 26.777344 Z M 451.746094 54.699219 " fill-opacity="1" fill-rule="nonzero"/></g></svg>